<?xml version="1.0" encoding="UTF-8" standalone="no"?>
<!-- Generator: Adobe Illustrator 17.0.0, SVG Export Plug-In . SVG Version: 6.00 Build 0)  -->

<svg
   xmlns:dc="http://purl.org/dc/elements/1.1/"
   xmlns:cc="http://creativecommons.org/ns#"
   xmlns:rdf="http://www.w3.org/1999/02/22-rdf-syntax-ns#"
   xmlns:svg="http://www.w3.org/2000/svg"
   xmlns="http://www.w3.org/2000/svg"
   xmlns:sodipodi="http://sodipodi.sourceforge.net/DTD/sodipodi-0.dtd"
   xmlns:inkscape="http://www.inkscape.org/namespaces/inkscape"
   version="1.1"
   id="Calque_1"
   x="0px"
   y="0px"
   width="500px"
   height="500px"
   viewBox="0 0 500 500"
   enable-background="new 0 0 500 500"
   xml:space="preserve"
   inkscape:version="0.91 r13725"
   sodipodi:docname="arel.svg"><metadata
     id="metadata23"><rdf:RDF><cc:Work
         rdf:about=""><dc:format>image/svg+xml</dc:format><dc:type
           rdf:resource="http://purl.org/dc/dcmitype/StillImage" /><dc:title /></cc:Work></rdf:RDF></metadata><defs
     id="defs21" /><sodipodi:namedview
     pagecolor="#ffffff"
     bordercolor="#666666"
     borderopacity="1"
     objecttolerance="10"
     gridtolerance="10"
     guidetolerance="10"
     inkscape:pageopacity="0"
     inkscape:pageshadow="2"
     inkscape:window-width="1918"
     inkscape:window-height="1060"
     id="namedview19"
     showgrid="false"
     inkscape:zoom="0.472"
     inkscape:cx="419.49153"
     inkscape:cy="419.49153"
     inkscape:window-x="0"
     inkscape:window-y="18"
     inkscape:window-maximized="1"
     inkscape:current-layer="Calque_1" /><path
     style="fill:#ffffff;fill-opacity:1"
     d="m 113.02936,333.01804 c -10.18015,-13.76776 -18.40932,-31.55415 -18.40932,-39.78958 0,-9.15996 2.249809,-11.32562 25.405,-24.45485 67.08902,-38.04016 111.64888,-94.50541 130.7747,-165.71473 2.11522,-7.875403 2.11903,-7.878364 3.35687,-2.6281 1.92704,8.17345 1.83611,27.39043 -0.21795,46.06089 -4.9683,45.15966 -18.88802,84.45728 -42.64211,120.38573 -20.44123,30.91769 -70.79941,74.46297 -86.11311,74.46297 -5.12663,0 -6.89646,-1.21187 -12.15408,-8.32233 z"
     id="path3137"
     inkscape:connector-curvature="0" /><path
     style="fill:#ffffff;fill-opacity:1"
     d="m 407.35771,324.35623 c -48.60121,-24.45467 -94.12668,-68.5928 -118.01749,-114.4211 -17.24516,-33.08035 -26.52149,-68.61485 -26.52149,-101.59484 0,-15.058715 0.55893,-19.332786 2.76799,-21.166121 3.7436,-3.106921 39.60256,-4.4282 48.91806,-1.802479 14.20394,4.003614 13.8709,3.069149 15.22828,42.72944 1.97955,57.83853 10.76819,92.81982 33.54537,133.52008 12.07806,21.58208 39.60961,56.10521 49.05369,61.51076 5.34803,3.06108 0.86756,4.16378 -4.97441,1.22426 l 0,0 z"
     id="path3139"
     inkscape:connector-curvature="0" /><path
     style="fill:#ffffff;fill-opacity:1"
     d="m 374.90988,228.37094 c -15.82084,-5.07398 -25.2144,-18.4727 -25.30466,-36.09391 -0.0806,-15.69228 6.32104,-26.41018 20.11682,-33.68165 8.48597,-4.4728 10.91392,-4.96433 20.76889,-4.20461 14.65645,1.12984 23.74744,7.22591 30.59197,20.51381 4.23891,8.22937 4.8348,11.08694 4.10824,19.70062 -2.17924,25.83585 -25.71853,41.64337 -50.28126,33.76574 l 0,0 z"
     id="path3141"
     inkscape:connector-curvature="0" /><path
     style="fill:#ffffff;fill-opacity:1"
     d="m 359.03381,379.62054 c -19.47897,-11.92441 -46.36495,-24.55608 -64.19873,-30.16209 -52.92954,-16.63827 -111.88221,-17.37756 -157.28933,-1.97244 -6.20615,2.10552 4.02259,-5.31793 19.27276,-13.98712 52.68276,-29.94831 121.25715,-41.71367 177.83508,-30.51131 17.16742,3.39914 46.04577,13.69942 62.19847,22.18483 14.43349,7.58226 15.81483,8.7617 16.31406,13.92962 0.75314,7.796 -13.48198,35.10482 -22.58647,43.33018 -9.36701,8.46255 -13.77006,8.0701 -31.54584,-2.81167 l 0,0 z"
     id="path3143"
     inkscape:connector-curvature="0" /><path
     style="fill:#ffffff;fill-opacity:1"
     d="m 247.92614,427.39076 c -9.44395,-4.35015 -16.12023,-10.93046 -20.19272,-19.90246 -12.56457,-27.68069 12.12354,-57.79404 42.658,-52.03219 29.24085,5.51776 40.70811,39.51979 20.78185,61.62112 -11.75223,13.03505 -28.61075,17.05545 -43.24713,10.31353 z"
     id="path3145"
     inkscape:connector-curvature="0" /><path
     style="fill:#ffffff;fill-opacity:1"
     d="m 137.86777,219.76579 c -20.74344,-7.72248 -31.29051,-31.70025 -22.43519,-51.00431 11.2099,-24.43685 41.05584,-31.13923 61.34176,-13.77523 15.81034,13.53306 17.23689,39.07378 3.05415,54.68136 -9.20613,10.13103 -29.0468,14.90583 -41.96072,10.09818 z"
     id="path3147"
     inkscape:connector-curvature="0" /></svg>